<svg width="72" height="84" fill="none" xmlns="http://www.w3.org/2000/svg"><path fill-rule="evenodd" clip-rule="evenodd" d="M53.122 30.876a2.999 2.999 0 010 4.248l-18 18a2.998 2.998 0 01-4.248 0l-9-9a3.004 3.004 0 014.248-4.248l6.876 6.882 15.876-15.882a3 3 0 014.248 0z" fill="#6E9C9F"/><path fill-rule="evenodd" clip-rule="evenodd" d="M12 0h48a12 12 0 0112 12v60a12 12 0 01-12 12H12A12 12 0 010 72V12A12 12 0 0112 0zm0 6a6 6 0 00-6 6v60a6 6 0 006 6h48a6 6 0 006-6V12a6 6 0 00-6-6H12z" fill="#6E9C9F"/></svg>